<svg xmlns="http://www.w3.org/2000/svg" viewBox="0 0 256 256">
  <defs>
    <linearGradient id="sealBody" x1="0" y1="0" x2="1" y2="1">
      <stop offset="0" stop-color="#b7efff" />
      <stop offset="1" stop-color="#5cc7e8" />
    </linearGradient>
    <linearGradient id="sealFace" x1="0" y1="0" x2="1" y2="1">
      <stop offset="0" stop-color="#f5fbff" />
      <stop offset="1" stop-color="#cfefff" />
    </linearGradient>
  </defs>
  <rect width="256" height="256" rx="64" fill="#0b2033" />
  <circle cx="128" cy="140" r="72" fill="url(#sealBody)" />
  <ellipse cx="128" cy="128" rx="58" ry="48" fill="url(#sealFace)" />
  <circle cx="96" cy="122" r="8" fill="#0b2033" />
  <circle cx="160" cy="122" r="8" fill="#0b2033" />
  <circle cx="92" cy="118" r="3" fill="#ffffff" />
  <circle cx="156" cy="118" r="3" fill="#ffffff" />
  <ellipse cx="128" cy="142" rx="10" ry="8" fill="#0b2033" />
  <path d="M110 154c6 8 14 12 18 12s12-4 18-12" fill="none" stroke="#0b2033" stroke-width="6" stroke-linecap="round" />
  <ellipse cx="70" cy="170" rx="22" ry="14" fill="#7ed4ef" />
  <ellipse cx="186" cy="170" rx="22" ry="14" fill="#7ed4ef" />
  <circle cx="86" cy="92" r="14" fill="#7ed4ef" />
  <circle cx="170" cy="92" r="14" fill="#7ed4ef" />
  <path d="M70 196c22 18 44 28 58 28s36-10 58-28" fill="none" stroke="#7ed4ef" stroke-width="12" stroke-linecap="round" />
</svg>
